<svg xmlns="http://www.w3.org/2000/svg" viewBox="0 0 400 400">
  <defs>
    <linearGradient id="gradA" x1="0" x2="1" y1="0" y2="1">
      <stop offset="0%" stop-color="#fde68a" />
      <stop offset="100%" stop-color="#fca5a5" />
    </linearGradient>
  </defs>
  <rect width="400" height="400" rx="32" fill="url(#gradA)" />
  <g fill="#f87171" opacity="0.75">
    <path d="M120 160c0-26.5 18.4-48 44-48 13.9 0 27.2 7.1 36 18.8C208.8 119.1 222.1 112 236 112c25.6 0 44 21.5 44 48 0 41.2-40.5 66.4-76 99.5-35.5-33.1-76-58.3-76-99.5Z"/>
    <path d="M64 260c0-18 12.8-32 30.6-32 9.7 0 19.1 4.9 25.3 13.2 6.2-8.3 15.6-13.2 25.3-13.2 17.8 0 30.6 14 30.6 32 0 27.5-26.6 43.9-55.9 71.1C90.6 303.9 64 287.5 64 260Z"/>
  </g>
  <text x="200" y="320" text-anchor="middle" font-size="36" font-family="'SF Pro Display','PingFang SC','Microsoft YaHei',sans-serif" fill="#7f1d1d">继续了解我吧～</text>
</svg>
